# xmcd
#
# Track frame offsets:
#	150
#	22780
#	35214
#	47042
#	66246
#	80999
#	92677
#	106835
#	119545
#	130791
#	141653
#	152947
#	172191
#	180511
#	190876
#
# Disc length: 2749 seconds
#
# Revision: 0
# Processed by: cddbd v1.5.2PL0 Copyright (c) Steve Scherf et al.
# Submitted via: dBpowerAMP V4.0
#
DISCID=da0abb0f
DTITLE=Various Artist - Brit Blues, Vol.1
DYEAR=2006
DGENRE=Blues
TTITLE0=Boom Boom - Animals
TTITLE1=Good Morning Little School Girl - Yardbirds
TTITLE2=Who's Knockin' - Jeremy Spencer
TTITLE3=Wrist Job - Humble Pie
TTITLE4=When Did You Leave Heaven - Davy Graham
TTITLE5=Moanin' - Chris Farlowe
TTITLE6=Draggin' My Tail - Eric Clapton and Jimmy Page
TTITLE7=On Top Of The World - John Mayall and Bluesbreakers
TTITLE8=Bright Lights Big City - Rod Stewart
TTITLE9=You Don't Love Me - T.S. McPhee
TTITLE10=Tiger - Brian Auger And The Trinity
TTITLE11=Stormy Monday - Graham Bond Organisation
TTITLE12=So Come On - Les Fleur De Lys
TTITLE13=West Coast Idea - Eric Clapton
TTITLE14=Down In The Boots - Jimmy Page And Allstars
EXTD=
EXTT0=
EXTT1=
EXTT2=
EXTT3=
EXTT4=
EXTT5=
EXTT6=
EXTT7=
EXTT8=
EXTT9=
EXTT10=
EXTT11=
EXTT12=
EXTT13=
EXTT14=
PLAYORDER=
